<svg width="48" height="48" viewBox="0 0 48 48" fill="none" xmlns="http://www.w3.org/2000/svg">
<g clip-path="url(#clip0_248_392)">
<path d="M23.5202 0C24.8744 0.669734 25.2602 1.71708 25.2402 3.15438C25.1686 8.31433 25.2311 13.476 25.203 18.6368C25.1914 20.7757 25.6948 22.8205 26.4405 24.7669C27.246 26.8693 28.9245 28.1462 31.1257 28.7067C32.2729 28.9989 33.4295 29.2877 34.5297 29.7136C34.9442 29.874 35.4198 30.3803 35.4933 30.7956C35.5851 31.314 35.1387 31.6642 34.5245 31.827C32.9752 32.2375 31.418 32.6662 29.9325 33.26C27.7909 34.116 26.5912 35.8383 26.0175 38.0434C25.7184 39.1927 25.3703 40.3292 25.0465 41.472C24.9005 41.987 24.5932 42.3082 24.0346 42.3224C23.4378 42.3375 23.1126 42.0119 22.9507 41.461C22.534 40.0429 22.1273 38.6214 21.6791 37.2133C20.9419 34.8968 19.3389 33.5196 17.0152 32.9032C15.7947 32.5794 14.608 32.1263 13.3864 31.8076C12.8339 31.6635 12.5084 31.34 12.4901 30.8539C12.4689 30.2872 12.823 29.8567 13.3978 29.6876C14.5343 29.3533 15.6698 29.0146 16.8133 28.7058C19.385 28.0113 21.0332 26.4831 21.8749 23.8539C22.6594 21.4036 22.8149 18.9499 22.7958 16.4305C22.7659 12.5127 22.7888 8.59454 22.7874 4.67653C22.7869 3.3574 22.0492 2.59956 20.7209 2.59769C15.4158 2.59023 10.1106 2.58977 4.80543 2.59799C3.46006 2.60007 2.74802 3.33861 2.74794 4.68254C2.74716 17.5714 2.74701 30.4603 2.74817 43.3492C2.74829 44.6996 3.45783 45.4048 4.81377 45.4049C17.6054 45.4058 30.397 45.4058 43.1887 45.4048C44.5534 45.4047 45.2524 44.7062 45.2524 43.3524C45.2526 30.5446 45.2359 17.7367 45.2734 4.92896C45.2781 3.31474 44.4164 2.57593 42.9553 2.58538C38.8622 2.61184 34.7687 2.58738 30.6754 2.60123C29.9363 2.60372 29.3418 2.45436 29.1763 1.6254C29.0292 0.888716 29.3978 0.422137 30.0401 0.052885C35.0202 -9.66562e-09 39.9798 -4.83281e-09 45.0393 0.054895C45.4961 0.256341 45.8563 0.395355 46.2092 0.550887C47.1799 0.978637 47.447 1.98529 48 2.75676C48 16.9764 48 31.196 47.941 45.4936C47.2363 46.6327 46.4884 47.5824 45.2525 48C31.1347 48 17.0168 48 2.80012 47.9459C2.20606 47.6045 1.63907 47.3937 1.23419 47.0104C0.75036 46.5525 0.405215 45.947 4.44802e-09 45.4054C-6.42017e-07 31.1858 -6.55049e-07 16.9662 0.0540695 2.65317C0.65414 1.27945 1.60728 0.447673 2.90909 0C9.75422 0 16.5993 0 23.5202 0Z" fill="#BC936A"/>
</g>
<defs>
<clipPath id="clip0_248_392">
<rect width="48" height="48" fill="white"/>
</clipPath>
</defs>
</svg>
