<svg width="18" height="18" viewBox="0 0 18 18" fill="none" xmlns="http://www.w3.org/2000/svg">
<path d="M9.5 0.558594C9.5 0.282451 9.27614 0.0585938 9 0.0585938C8.72386 0.0585937 8.5 0.282451 8.5 0.558594L9.5 0.558594ZM9 0.558594L8.5 0.558594L8.5 16.0719L9 16.0719L9.5 16.0719L9.5 0.558594L9 0.558594Z" fill="#3A3931"/>
<path d="M16.6979 9.0719L13.4716 10.0077C13.4716 10.0077 13.4251 10.0216 13.4018 10.0309C12.1169 10.5151 11.1066 11.53 10.6224 12.8103C10.6131 12.8336 10.6085 12.8569 10.5992 12.8802L9.8197 16.0593C9.62882 16.725 8.37112 16.725 8.18024 16.0593L7.40079 12.8802C7.40079 12.8802 7.38682 12.8336 7.37751 12.8103C6.89333 11.5254 5.87842 10.5151 4.59814 10.0309C4.57486 10.0216 4.55159 10.017 4.52831 10.0077L1.302 9.0719" stroke="#3A3931" stroke-linecap="round"/>
</svg>
