<svg width="51" height="73" viewBox="0 0 51 73" fill="none" xmlns="http://www.w3.org/2000/svg">
<path d="M24.0755 47.808L21.261 38.1043C21.261 38.1043 21.219 37.9643 21.191 37.8943C19.7347 34.0296 16.6822 30.9911 12.8315 29.5348C12.7615 29.5068 12.6915 29.4928 12.6215 29.4648L2.91777 26.6503C0.915415 26.0762 0.915415 23.2337 2.91777 22.6596L12.6215 19.8451C12.6215 19.8451 12.7615 19.8031 12.8315 19.7751C16.6962 18.3188 19.7347 15.2663 21.191 11.4156C21.219 11.3456 21.233 11.2756 21.261 11.2056L24.0755 1.50184C24.6496 -0.50051 27.4921 -0.500509 28.0662 1.50184L30.8807 11.2056C30.8807 11.2056 30.9227 11.3456 30.9507 11.4156C32.407 15.2803 35.4595 18.3188 39.3102 19.7751C39.3802 19.8031 39.4502 19.8171 39.5203 19.8451L49.0821 22.1895C51.0845 22.7636 51.0845 26.5463 49.0821 27.1204L39.5203 29.4648C39.5203 29.4648 39.3802 29.5068 39.3102 29.5348C35.4455 30.9911 32.407 34.0436 30.9507 37.8943C30.9227 37.9643 30.9087 38.0343 30.8807 38.1043L28.0662 47.808C27.4921 49.8104 24.6496 49.8104 24.0755 47.808Z" fill="#BE8C55"/>
<path d="M47.7222 49.3097L38.0185 52.1242C38.0185 52.1242 37.8785 52.1662 37.8085 52.1943C33.9438 53.6505 30.9052 56.7031 29.449 60.5537C29.421 60.6238 29.407 60.6938 29.379 60.7638L27.0346 70.3256C26.4605 72.328 22.6777 72.328 22.1036 70.3256L19.7593 60.7638C19.7593 60.7638 19.7173 60.6238 19.6893 60.5537C18.233 56.6891 15.1805 53.6505 11.3298 52.1943C11.2598 52.1663 11.1897 52.1522 11.1197 52.1242L1.41601 49.3097" stroke="#BE8C55" stroke-linecap="round"/>
</svg>
